<?xml version="1.0" encoding="utf-8"?>
<!-- Generator: Adobe Illustrator 24.2.3, SVG Export Plug-In . SVG Version: 6.00 Build 0)  -->
<svg version="1.2" baseProfile="tiny" id="Layer_1" xmlns="http://www.w3.org/2000/svg" xmlns:xlink="http://www.w3.org/1999/xlink"
	 x="0px" y="0px" viewBox="0 0 416 235.2" overflow="visible" xml:space="preserve">
<path fill="#EC1E24" d="M63.8,86.4l1.1-9.9l1.7,9.9l5.1,33.1c3.7-0.7,7.3-1.5,11-2.1c6.6-1.5,13.3-2.8,20.2-4.1L87,26.3
	c-0.2-0.7-0.7-1.1-1.4-1.1H45c-0.7,0-1.2,0.4-1.4,1.1L23.7,130.9c11-3.1,22.3-5.9,34-8.5L63.8,86.4z"/>
<path fill="#231F20" d="M41.1,210.3c0.7,0,1.2-0.4,1.4-1.3l3.1-19.4h38l3.1,19.4c0.2,0.9,0.6,1.3,1.4,1.3h31.1
	c0.9,0,1.3-0.4,1.1-1.3l-9.8-53.7c-37.6,15-70.9,33.7-98.5,55H41.1z"/>
<path fill="#231F20" d="M138.5,208.9c0,0.9,0.5,1.3,1.4,1.3h31.4c0.9,0,1.4-0.4,1.4-1.3v-67h21.3c9.9,0,19-2.5,27.4-7.4
	c5.3-3.1,10-7.2,14.1-12c-34.1,4.9-66.5,12.5-96.7,22.6L138.5,208.9z"/>
<path fill="#EC1E24" d="M172.6,57.1l21.3-0.3c6.9,0,12.3,2.2,16.2,6.6c3.9,4.4,5.9,10.1,5.9,17c0,8.7-2.2,15.7-6.6,21.1
	c-0.2,0.3-0.5,0.5-0.7,0.8c7.8-0.2,15.7-0.3,23.7-0.3c4.7,0,9.4,0.1,14,0.2c2.1-6.6,3.2-13.9,3.2-21.9c0-17-5-30.5-15-40.4
	c-10-9.9-23.6-14.9-40.7-14.9h-53.7c-0.7,0-1.1,0.4-1.1,1.1l-0.3,81.5c11.1-1.4,22.4-2.5,33.8-3.4V57.1z"/>
<path fill="#EC1E24" d="M294.1,75.2c0-5.7,2.1-10.6,6.3-14.9c4.2-4.3,9-6.4,14.4-6.4c6,0,11,2.2,15,6.6c4,4.4,6,10,6,16.8v10.1
	c0,0.7,0.4,1.1,1.1,1.1h31.4c0.9,0,1.4-0.4,1.4-1.1V75.2c0-9.9-2.4-18.9-7.3-26.9c-4.9-8-11.4-14.3-19.7-19c-8.3-4.7-17.6-7-27.8-7
	c-9.9,0-19,2.4-27.3,7.2c-8.3,4.8-14.9,11.2-19.9,19.3c-4.9,8.1-7.4,16.9-7.4,26.5v27.7c11.5,0.5,22.8,1.2,33.9,2.2V75.2z"/>
<path fill="#231F20" d="M324.5,116.6c-3.2,0-6.5-0.1-9.7,0v28.6c0,0.9,0.5,1.3,1.4,1.3h19.6v13c0,6-2,11.1-6,15.2
	c-4,4.1-9,6.1-15,6.1c-5.6,0-10.5-2.1-14.6-6.2c-4.1-4.2-6.2-9.2-6.2-15V117c-11.2,0.5-22.5,1.2-33.9,2.4v40c0,9.9,2.5,18.9,7.4,27
	c4.9,8.1,11.5,14.5,19.7,19.3c8.2,4.8,17.4,7.2,27.4,7.2c10.3,0,19.5-2.4,27.7-7.2c8.2-4.8,14.8-11.2,19.7-19.3
	c4.9-8.1,7.4-17.1,7.4-27v-40.4c-12.5-1.2-25.2-2-38.3-2.4"/>
<path fill="#EC1E24" d="M76.8,152.7c10-4.3,20.4-8.3,31.1-11.9c10-3.4,20.3-6.5,30.8-9.4c32.1-8.7,66.6-14.7,102.7-17.5
	c4.1-0.3,8.2-0.6,12.4-0.8c0.6,0,1.1-0.1,1.7-0.1c1.6-0.1,3.1-0.1,4.7-0.2c11.4-0.5,22.7-0.7,33.9-0.6c3.3,0,6.6,0.1,9.8,0.2
	c10.3,0.3,20.5,0.9,30.5,1.7c12,1,23.7,2.4,35.2,4.2c5.6,0.9,11.2,1.8,16.7,2.8c5.9,1.1,11.8,2.3,17.5,3.6c-2.9-0.8-5.8-1.6-8.8-2.3
	h0c-1.5-0.4-2.9-0.8-4.4-1.1c-6.9-1.7-13.9-3.3-21-4.8c-3.8-0.8-7.6-1.6-11.5-2.3c-20.5-3.9-41.9-6.9-64.1-8.9
	c-11.1-1-22.4-1.8-33.9-2.2c-4.6-0.2-9.2-0.4-13.8-0.5c-4.7-0.1-9.3-0.2-14-0.2c-8,0-15.9,0.1-23.7,0.3c-12.2,0.3-24.3,0.9-36.1,1.9
	c-11.5,0.9-22.8,2-33.8,3.4c-12.2,1.6-24.2,3.4-35.9,5.5c-6.8,1.2-13.6,2.6-20.2,4.1c-3.7,0.8-7.3,1.7-11,2.5
	c-4.8,1.2-9.6,2.4-14.2,3.6c-11.9,3.2-23.4,6.8-34.4,10.6l-4.3,22.5l-2.2,11.7l-3.5,18.3c13.8-9.2,28.9-17.8,45-25.6
	C64.2,158.2,70.4,155.4,76.8,152.7z"/>
<g>
	<path d="M19.6,488.9H7.8l-1.6,8.4H-4.4l12.6-51.2h11.3l12.6,51.2H21.3L19.6,488.9z M17.5,477.9l-3.7-18.4l-3.7,18.4H17.5z"/>
	<path d="M35.2,446.2h9.3v9.7h-9.3V446.2z M35.2,460.3h9.3v37.1h-9.3V460.3z"/>
	<path d="M50.6,460.3h8.7v6c1.3-2.5,2.6-4.2,3.9-5.3c1.3-1.1,3-1.6,4.9-1.6c2.6,0,4.6,1.2,6.1,3.5s2.2,6,2.2,10.8v23.6h-9.4V477
		c0-2.3-0.3-4-0.8-4.9c-0.6-1-1.4-1.4-2.4-1.4c-1.1,0-2.1,0.7-2.8,2c-0.7,1.3-1.1,3.6-1.1,7v17.8h-9.3V460.3z"/>
	<path d="M80.2,487.1l9.3-1.3c0.4,1.7,0.9,2.9,1.6,3.6s1.6,1.1,2.8,1.1c1.3,0,2.2-0.4,2.9-1.2c0.5-0.6,0.8-1.4,0.8-2.3
		c0-1-0.4-1.8-1.1-2.4c-0.5-0.4-1.8-0.9-4-1.5c-3.2-0.9-5.5-1.7-6.8-2.4s-2.3-2-3.2-3.7s-1.3-3.7-1.3-6c0-2.4,0.5-4.5,1.4-6.3
		c0.9-1.8,2.2-3.1,3.9-4c1.6-0.9,3.8-1.3,6.6-1.3c2.9,0,5.1,0.3,6.4,1s2.5,1.7,3.5,3.1c0.9,1.4,1.7,3.3,2.3,5.8l-8.9,1.3
		c-0.2-1.2-0.6-2.1-1.1-2.6c-0.7-0.7-1.6-1.1-2.7-1.1c-1.1,0-1.8,0.3-2.3,0.9s-0.7,1.3-0.7,2.1c0,0.9,0.3,1.6,0.9,2.1s1.9,0.9,4,1.3
		c3.1,0.5,5.4,1.3,6.9,2.2c1.5,1,2.7,2.3,3.5,4.1c0.8,1.8,1.2,3.7,1.2,5.8c0,2.1-0.4,4.2-1.3,6.2s-2.2,3.6-4,4.8s-4.3,1.8-7.5,1.8
		c-4.5,0-7.6-1-9.5-2.9S80.8,490.6,80.2,487.1z"/>
	<path d="M110.9,446.2h9.4v51.2h-9.4V446.2z"/>
	<path d="M126.6,446.2h9.3v9.7h-9.3V446.2z M126.6,460.3h9.3v37.1h-9.3V460.3z"/>
	<path d="M169,482.4h-18.7c0.2,2.3,0.6,4,1.2,5.1c0.9,1.6,2.1,2.4,3.5,2.4c0.9,0,1.8-0.3,2.6-1c0.5-0.4,1-1.2,1.6-2.3l9.2,1.3
		c-1.4,3.7-3.1,6.4-5.1,8c-2,1.6-4.8,2.4-8.6,2.4c-3.2,0-5.8-0.7-7.6-2.1c-1.9-1.4-3.4-3.6-4.6-6.6c-1.2-3-1.8-6.6-1.8-10.6
		c0-5.8,1.2-10.5,3.7-14.1s5.8-5.4,10.1-5.4c3.5,0,6.2,0.8,8.3,2.4c2,1.6,3.6,3.9,4.6,7c1.1,3,1.6,7,1.6,11.9V482.4z M159.5,475.6
		c-0.2-2.7-0.7-4.7-1.5-5.9c-0.8-1.2-1.8-1.8-3.1-1.8c-1.5,0-2.7,0.9-3.6,2.7c-0.6,1.1-0.9,2.8-1.1,5H159.5z"/>
	<path d="M189.5,446.2h17.3c3.8,0,6.6,1.4,8.5,4.1s2.8,6.6,2.8,11.6c0,5.2-1,9.2-3.1,12.1s-5.2,4.4-9.4,4.4h-5.7v19h-10.4V446.2z
		 M199.9,468h2.5c2,0,3.4-0.5,4.2-1.6c0.8-1.1,1.2-2.4,1.2-4.1c0-1.6-0.4-3-1.1-4.1c-0.7-1.1-2-1.7-4-1.7h-3V468z"/>
	<path d="M230.6,472.3l-8.9-1.4c0.3-2.4,0.8-4.2,1.5-5.6s1.5-2.5,2.7-3.5c0.9-0.7,2-1.3,3.5-1.7s3.1-0.6,4.9-0.6
		c2.8,0,5,0.2,6.7,0.7c1.7,0.5,3.1,1.5,4.2,3c0.8,1,1.4,2.5,1.9,4.5c0.5,1.9,0.7,3.8,0.7,5.5v16.4c0,1.7,0.1,3.1,0.2,4.1
		c0.1,1,0.5,2.3,1,3.8h-8.8c-0.4-1-0.6-1.7-0.7-2.2c-0.1-0.5-0.2-1.3-0.3-2.4c-1.2,1.8-2.4,3.1-3.6,3.8c-1.7,1-3.6,1.5-5.8,1.5
		c-2.9,0-5.1-1-6.6-3.1c-1.5-2-2.3-4.6-2.3-7.6c0-2.8,0.5-5.1,1.6-6.9c1.1-1.8,3.1-3.2,6-4c3.5-1.1,5.8-1.8,6.8-2.3
		c1-0.4,2.1-1,3.3-1.7c0-1.7-0.2-3-0.7-3.7c-0.5-0.7-1.3-1-2.5-1c-1.5,0-2.7,0.4-3.4,1.1C231.4,469.6,231,470.7,230.6,472.3z
		 M238.7,479.8c-1.3,0.7-2.6,1.3-4,1.8c-1.9,0.8-3.1,1.5-3.6,2.3c-0.5,0.8-0.8,1.6-0.8,2.6c0,1.1,0.3,2,0.8,2.7
		c0.5,0.7,1.3,1.1,2.3,1.1c1,0,2-0.4,2.9-1.2s1.5-1.7,1.9-2.8c0.4-1.1,0.6-2.5,0.6-4.3V479.8z"/>
	<path d="M253.5,460.3h8.7v6.1c0.8-2.6,1.7-4.4,2.6-5.4c0.9-1,2-1.5,3.3-1.5c1.4,0,2.9,0.7,4.5,2l-2.9,10.1c-1.1-0.7-2-1-2.6-1
		c-1.2,0-2.2,0.8-2.8,2.3c-1,2.2-1.4,6.2-1.4,12.1v12.4h-9.4V460.3z"/>
	<path d="M275.8,446.2h9.5v26.4l7-12.3h11.5l-8.7,13l9.2,24.1h-10.5l-4.9-14.9l-3.5,5.2v9.6h-9.5V446.2z"/>
	<path d="M340.4,478.8v-10.6h16.1V490c-3.1,3.2-5.8,5.4-8.2,6.5c-2.4,1.2-5.2,1.7-8.4,1.7c-4,0-7.2-1-9.8-3.1
		c-2.5-2.1-4.5-5.2-5.9-9.3s-2.1-8.8-2.1-14.1c0-5.6,0.8-10.4,2.3-14.6c1.5-4.1,3.7-7.3,6.7-9.4c2.3-1.7,5.3-2.5,9.2-2.5
		c3.7,0,6.5,0.5,8.3,1.5c1.8,1,3.4,2.6,4.6,4.8c1.2,2.2,2.1,4.9,2.7,8.2l-10,2.7c-0.4-1.9-1.1-3.4-2.1-4.4c-1-1-2.2-1.5-3.8-1.5
		c-2.3,0-4.1,1.2-5.5,3.6c-1.4,2.4-2,6.2-2,11.4c0,5.5,0.7,9.5,2.1,11.9c1.4,2.4,3.3,3.6,5.7,3.6c1.2,0,2.3-0.3,3.3-0.8
		c1.1-0.5,2.3-1.4,3.6-2.6v-4.8H340.4z"/>
	<path d="M370.5,472.3l-8.9-1.4c0.3-2.4,0.8-4.2,1.5-5.6c0.6-1.4,1.5-2.5,2.7-3.5c0.9-0.7,2-1.3,3.5-1.7c1.5-0.4,3.1-0.6,4.9-0.6
		c2.8,0,5,0.2,6.7,0.7c1.7,0.5,3.1,1.5,4.2,3c0.8,1,1.4,2.5,1.9,4.5c0.5,1.9,0.7,3.8,0.7,5.5v16.4c0,1.7,0.1,3.1,0.2,4.1
		s0.5,2.3,1,3.8h-8.8c-0.4-1-0.6-1.7-0.7-2.2c-0.1-0.5-0.2-1.3-0.3-2.4c-1.2,1.8-2.4,3.1-3.6,3.8c-1.7,1-3.6,1.5-5.8,1.5
		c-2.9,0-5.1-1-6.6-3.1c-1.5-2-2.3-4.6-2.3-7.6c0-2.8,0.5-5.1,1.6-6.9c1.1-1.8,3.1-3.2,6-4c3.5-1.1,5.8-1.8,6.8-2.3
		c1-0.4,2.1-1,3.3-1.7c0-1.7-0.2-3-0.7-3.7c-0.5-0.7-1.3-1-2.5-1c-1.5,0-2.7,0.4-3.4,1.1C371.4,469.6,370.9,470.7,370.5,472.3z
		 M378.6,479.8c-1.3,0.7-2.6,1.3-4,1.8c-1.9,0.8-3.1,1.5-3.6,2.3c-0.5,0.8-0.8,1.6-0.8,2.6c0,1.1,0.3,2,0.8,2.7
		c0.5,0.7,1.3,1.1,2.3,1.1c1,0,2-0.4,2.9-1.2c0.9-0.8,1.5-1.7,1.9-2.8c0.4-1.1,0.6-2.5,0.6-4.3V479.8z"/>
	<path d="M393.5,460.3h8.7v6.1c0.8-2.6,1.7-4.4,2.6-5.4c0.9-1,2-1.5,3.3-1.5c1.4,0,2.9,0.7,4.5,2l-2.9,10.1c-1.1-0.7-2-1-2.6-1
		c-1.2,0-2.2,0.8-2.8,2.3c-1,2.2-1.4,6.2-1.4,12.1v12.4h-9.4V460.3z"/>
	<path d="M423.5,472.3l-8.9-1.4c0.3-2.4,0.8-4.2,1.5-5.6c0.6-1.4,1.5-2.5,2.7-3.5c0.9-0.7,2-1.3,3.5-1.7c1.5-0.4,3.1-0.6,4.9-0.6
		c2.8,0,5,0.2,6.7,0.7c1.7,0.5,3.1,1.5,4.2,3c0.8,1,1.4,2.5,1.9,4.5c0.5,1.9,0.7,3.8,0.7,5.5v16.4c0,1.7,0.1,3.1,0.2,4.1
		s0.5,2.3,1,3.8h-8.8c-0.4-1-0.6-1.7-0.7-2.2c-0.1-0.5-0.2-1.3-0.3-2.4c-1.2,1.8-2.4,3.1-3.6,3.8c-1.7,1-3.6,1.5-5.8,1.5
		c-2.9,0-5.1-1-6.6-3.1c-1.5-2-2.3-4.6-2.3-7.6c0-2.8,0.5-5.1,1.6-6.9c1.1-1.8,3.1-3.2,6-4c3.5-1.1,5.8-1.8,6.8-2.3
		c1-0.4,2.1-1,3.3-1.7c0-1.7-0.2-3-0.7-3.7c-0.5-0.7-1.3-1-2.5-1c-1.5,0-2.7,0.4-3.4,1.1C424.4,469.6,423.9,470.7,423.5,472.3z
		 M431.6,479.8c-1.3,0.7-2.6,1.3-4,1.8c-1.9,0.8-3.1,1.5-3.6,2.3c-0.5,0.8-0.8,1.6-0.8,2.6c0,1.1,0.3,2,0.8,2.7
		c0.5,0.7,1.3,1.1,2.3,1.1c1,0,2-0.4,2.9-1.2c0.9-0.8,1.5-1.7,1.9-2.8c0.4-1.1,0.6-2.5,0.6-4.3V479.8z"/>
	<path d="M464.1,460.3h8.7v35l0,1.6c0,2.3-0.3,4.5-1,6.6c-0.7,2.1-1.5,3.8-2.6,5.1c-1.1,1.3-2.4,2.2-4.1,2.8
		c-1.7,0.6-3.6,0.9-5.7,0.9c-4.9,0-8.3-1.1-10.1-3.4c-1.8-2.2-2.7-5.2-2.7-9c0-0.5,0-1.1,0-1.9l9.1,1.6c0.2,1.3,0.6,2.2,1.1,2.7
		c0.7,0.7,1.6,1.1,2.6,1.1c1.3,0,2.4-0.5,3-1.6c0.7-1.1,1-3,1-5.7v-5.6c-0.9,1.7-1.8,2.9-2.8,3.6c-1.4,1.2-3,1.7-4.7,1.7
		c-3.3,0-5.9-2.2-7.9-6.5c-1.4-3.1-2.1-7.1-2.1-12.2c0-5.8,0.9-10.2,2.8-13.2s4.2-4.5,7.2-4.5c1.9,0,3.5,0.5,4.7,1.5
		s2.4,2.6,3.5,4.9V460.3z M455.3,478.3c0,2.7,0.4,4.7,1.1,6c0.7,1.3,1.7,1.9,3,1.9c1.2,0,2.1-0.7,2.9-2s1.2-3.4,1.2-6.1
		s-0.4-4.8-1.2-6.2c-0.8-1.4-1.8-2.1-3-2.1s-2.1,0.7-2.9,2C455.7,473.1,455.3,475.2,455.3,478.3z"/>
	<path d="M505.5,482.4h-18.7c0.2,2.3,0.6,4,1.2,5.1c0.9,1.6,2.1,2.4,3.5,2.4c0.9,0,1.8-0.3,2.6-1c0.5-0.4,1-1.2,1.6-2.3l9.2,1.3
		c-1.4,3.7-3.1,6.4-5.1,8c-2,1.6-4.8,2.4-8.6,2.4c-3.2,0-5.8-0.7-7.6-2.1c-1.9-1.4-3.4-3.6-4.6-6.6c-1.2-3-1.8-6.6-1.8-10.6
		c0-5.8,1.2-10.5,3.7-14.1s5.8-5.4,10.1-5.4c3.5,0,6.2,0.8,8.3,2.4c2,1.6,3.6,3.9,4.6,7c1.1,3,1.6,7,1.6,11.9V482.4z M496,475.6
		c-0.2-2.7-0.7-4.7-1.5-5.9c-0.8-1.2-1.8-1.8-3.1-1.8c-1.5,0-2.7,0.9-3.6,2.7c-0.6,1.1-0.9,2.8-1.1,5H496z"/>
</g>
<g>
</g>
<g>
</g>
<g>
</g>
<g>
</g>
<g>
</g>
<g>
</g>
</svg>
